<svg width="150" height="50" viewBox="0 0 150 50" fill="none" xmlns="http://www.w3.org/2000/svg">
<path d="M91.403 0C91.4736 0.352993 91.6073 0.709703 91.6073 1.06641C91.6185 6.88151 91.6148 12.6966 91.6185 18.5117C91.6185 18.7421 91.6408 18.9688 91.6556 19.1954C91.7002 19.214 91.7448 19.2326 91.7931 19.2511C91.9343 19.1025 92.0829 18.9613 92.213 18.8053C93.703 17.0291 95.4903 15.6841 97.7383 15.0041C99.2729 14.5359 100.852 14.4207 102.442 14.4987C104.586 14.5991 106.641 15.045 108.521 16.1299C111.104 17.6199 112.846 19.8308 113.935 22.5656C115.355 26.1289 115.7 29.8484 115.459 33.6496C115.325 35.775 115.02 37.8706 114.318 39.8845C112.969 43.7415 110.717 46.8032 106.73 48.2858C104.192 49.2296 101.569 49.3633 98.931 48.9212C96.0736 48.4418 93.6324 47.1562 91.7745 44.8636C91.7225 44.7967 91.6371 44.7559 91.4699 44.6221C91.4364 44.897 91.3955 45.0754 91.3955 45.2575C91.3881 46.0712 91.3807 46.8812 91.3955 47.695C91.4067 48.178 91.2358 48.401 90.7193 48.3973C88.3561 48.3824 85.9929 48.3935 83.6334 48.3898C82.9571 48.3898 82.92 48.349 82.9163 47.6615C82.9163 42.5301 82.9163 37.3987 82.9163 32.2673C82.9163 21.8559 82.9163 11.4481 82.9274 1.03669C82.9274 0.69484 83.1058 0.349278 83.2024 0.00743143C85.9409 -6.92107e-09 88.6719 0 91.403 0ZM91.6965 31.2678C91.7039 34.0694 92.0718 36.3286 93.1271 38.4354C94.3421 40.8655 96.2483 42.3555 99.0276 42.4484C101.655 42.5376 103.583 41.3002 104.835 39.0188C105.701 37.447 106.125 35.7378 106.322 33.9617C106.686 30.6696 106.392 27.4778 104.824 24.4977C104.048 23.0263 102.888 21.9079 101.264 21.4583C98.2436 20.6185 95.6315 21.5846 93.8293 24.1893C92.2576 26.4559 91.73 29.0309 91.6965 31.2678Z" fill="#010101"/>
<path d="M149.967 48.3564C149.762 48.3675 149.599 48.3861 149.439 48.3861C147.001 48.3861 144.564 48.3861 142.13 48.3861C141.45 48.3861 141.409 48.3452 141.409 47.6615C141.409 41.6049 141.435 35.552 141.391 29.4991C141.383 28.1057 141.223 26.7012 140.974 25.3301C140.48 22.6027 138.485 21.083 135.691 21.161C132.766 21.2391 130.827 22.7699 129.627 25.3263C128.605 27.5038 128.282 29.8335 128.282 32.219C128.282 37.3504 128.282 42.4818 128.282 47.6132C128.282 48.3452 128.237 48.3973 127.498 48.3973C125.134 48.3973 122.771 48.3898 120.412 48.3861C119.698 48.3861 119.665 48.3601 119.665 47.6355C119.665 42.8348 119.665 38.0378 119.665 33.2371C119.665 27.5335 119.665 21.8299 119.665 16.1262C119.665 15.2605 119.665 15.2567 120.501 15.2567C122.734 15.2567 124.967 15.2679 127.2 15.2567C127.665 15.2567 127.865 15.3868 127.847 15.8884C127.817 16.9028 127.836 17.9209 127.839 18.9353C127.839 19.1137 127.854 19.292 127.873 19.6301C128.096 19.4332 128.237 19.3403 128.337 19.214C129.968 17.1295 132.02 15.6246 134.602 15.0041C138.247 14.1309 141.863 14.0789 145.181 16.1634C147.343 17.5233 148.569 19.5967 149.316 21.9933C149.491 22.5581 149.751 23.0969 149.955 23.6543C150.004 23.788 150 23.9441 150 24.0927C150 32.0481 150 40.0034 150 47.9588C150 48.0703 149.981 48.178 149.967 48.3564Z" fill="#010101"/>
<path d="M60.7222 31.0411C60.7222 28.1242 60.7222 25.2074 60.7222 22.2906C60.7222 21.54 60.6813 21.4991 59.9456 21.4954C58.3219 21.4954 56.6981 21.4768 55.0743 21.5028C54.5355 21.5103 54.3237 21.3653 54.3349 20.7894C54.372 19.2028 54.346 17.6162 54.346 16.0296C54.346 15.3013 54.3758 15.2753 55.0855 15.2716C56.7278 15.2678 58.3702 15.2493 60.0125 15.2716C60.5401 15.279 60.7334 15.1044 60.7259 14.5693C60.7036 12.7969 60.7296 11.0245 60.7111 9.25581C60.7074 8.76534 60.8969 8.55354 61.3688 8.40863C63.3232 7.81411 65.2628 7.16386 67.2061 6.5359C67.7152 6.37241 68.2243 6.20521 68.737 6.06029C69.313 5.8968 69.4133 5.97855 69.4133 6.59907C69.417 9.18521 69.4133 11.7676 69.4133 14.3501C69.4133 15.2381 69.4356 15.2604 70.3051 15.2641C72.319 15.2678 74.3292 15.2678 76.3394 15.2753C77.0937 15.2753 77.0974 15.2827 77.0974 16.0556C77.0974 17.6608 77.0825 19.266 77.1085 20.8712C77.116 21.3542 76.9785 21.514 76.488 21.5065C74.4035 21.4843 72.319 21.4954 70.2307 21.4991C69.4765 21.4991 69.4133 21.5697 69.4133 22.3277C69.4133 27.2176 69.4096 32.1112 69.417 37.0011C69.417 38.1864 69.5545 39.368 70.071 40.453C70.8438 42.0731 72.2521 42.6044 74.2103 42.4112C75.1504 42.3183 76.0719 42.0099 76.9896 41.7535C77.4467 41.6235 77.4578 41.8873 77.469 42.1771C77.5061 43.3736 77.5321 44.5737 77.5656 45.7739C77.5842 46.4205 77.6065 47.0633 77.6436 47.7098C77.6659 48.1297 77.5656 48.4195 77.0863 48.5013C76.2168 48.6536 75.3584 48.9323 74.4815 48.9917C72.1629 49.1515 69.8332 49.3596 67.5517 48.6945C64.5308 47.8138 62.4575 45.9003 61.4022 42.9202C60.8448 41.3522 60.6962 39.7247 60.7074 38.0712C60.7334 35.7303 60.7222 33.3857 60.7222 31.0411Z" fill="#010101"/>
<path d="M103.668 3.51881C104.178 3.51881 104.579 3.51881 105.032 3.51881C105.032 5.54388 105.032 7.54293 105.032 9.58286C104.419 9.70548 103.891 9.7092 103.431 9.08124C102.658 8.03341 101.788 7.05617 100.852 5.91916C100.852 7.24939 100.852 8.41613 100.852 9.60887C100.373 9.60887 99.9565 9.60887 99.4883 9.60887C99.4883 7.59124 99.4883 5.57732 99.4883 3.53739C100.142 3.44821 100.674 3.44449 101.131 4.08731C101.877 5.13143 102.747 6.09009 103.668 7.20852C103.668 5.89315 103.668 4.73013 103.668 3.51881Z" fill="#010101"/>
<path d="M126.739 9.58289C125.981 9.77611 125.472 9.5606 125.023 8.92892C124.395 8.04458 123.655 7.23827 122.964 6.40223C122.868 6.28333 122.756 6.17186 122.57 5.97493C122.57 7.2457 122.57 8.39758 122.57 9.59404C122.102 9.59404 121.671 9.59404 121.199 9.59404C121.199 7.58383 121.199 5.57363 121.199 3.53741C121.861 3.44452 122.388 3.44824 122.849 4.08734C123.596 5.13146 124.465 6.09011 125.379 7.20111C125.379 5.90061 125.379 4.74131 125.379 3.53741C125.859 3.53741 126.275 3.53741 126.743 3.53741C126.739 5.5439 126.739 7.55782 126.739 9.58289Z" fill="#010101"/>
<path d="M106.492 3.53741C107.629 3.53741 108.718 3.47796 109.799 3.55227C111.438 3.66374 112.523 4.83791 112.582 6.43567C112.642 8.05944 111.691 9.33021 110.052 9.52715C108.893 9.66463 107.707 9.55316 106.492 9.55316C106.492 7.59126 106.492 5.58105 106.492 3.53741ZM107.878 8.43101C108.499 8.43101 109.053 8.48303 109.599 8.41986C110.569 8.30839 111.156 7.59869 111.182 6.60659C111.208 5.65165 110.669 4.89364 109.733 4.73387C109.134 4.62983 108.506 4.66327 107.878 4.63726C107.878 5.95634 107.878 7.18253 107.878 8.43101Z" fill="#010101"/>
<path d="M116.562 3.39234C118.509 3.44065 119.884 4.78574 119.854 6.60273C119.824 8.44572 118.364 9.7871 116.432 9.74622C114.507 9.70535 113.103 8.33054 113.14 6.52841C113.173 4.67055 114.626 3.34032 116.562 3.39234ZM116.454 8.54976C117.576 8.56834 118.409 7.75831 118.435 6.61759C118.461 5.45457 117.632 4.57394 116.51 4.56651C115.41 4.55908 114.57 5.40626 114.559 6.53956C114.544 7.684 115.343 8.52747 116.454 8.54976Z" fill="#010101"/>
<path d="M148.194 9.63497C147.8 9.63497 147.395 9.67585 147.009 9.6164C146.856 9.5941 146.693 9.3563 146.615 9.18537C146.228 8.31218 146.239 8.30846 145.281 8.30846C144.694 8.30846 144.103 8.31218 143.512 8.31589C143.479 8.31589 143.441 8.33447 143.423 8.33819C143.207 8.76921 143.096 9.32285 142.758 9.57552C142.487 9.77989 141.944 9.6164 141.472 9.6164C141.506 9.48635 141.52 9.36744 141.569 9.2634C142.364 7.46499 143.17 5.6703 143.958 3.86446C144.081 3.58207 144.248 3.43715 144.541 3.50032C144.92 3.57835 145.422 3.24393 145.667 3.78643C146.522 5.68145 147.365 7.58018 148.209 9.47891C148.22 9.50864 148.201 9.54951 148.194 9.63497ZM144.827 4.89C144.486 5.7186 144.188 6.43574 143.869 7.20118C144.534 7.20118 145.117 7.20118 145.782 7.20118C145.467 6.43574 145.169 5.72232 144.827 4.89Z" fill="#010101"/>
<path d="M128.274 9.6125C128.274 7.58372 128.274 5.58466 128.274 3.54102C129.794 3.54102 131.295 3.54102 132.837 3.54102C132.837 3.89029 132.837 4.22842 132.837 4.63344C131.778 4.63344 130.737 4.63344 129.667 4.63344C129.667 5.0979 129.667 5.49548 129.667 5.9488C130.604 5.9488 131.518 5.9488 132.462 5.9488C132.462 6.33152 132.462 6.65479 132.462 7.0598C131.547 7.0598 130.622 7.0598 129.667 7.0598C129.667 7.57257 129.667 8.0036 129.667 8.50522C130.767 8.50522 131.845 8.50522 132.956 8.50522C132.956 8.91023 132.956 9.24836 132.956 9.6125C131.388 9.6125 129.849 9.6125 128.274 9.6125Z" fill="#010101"/>
<path d="M133.287 9.06252C133.465 8.66865 133.606 8.35282 133.729 8.07785C134.327 8.25621 134.892 8.47172 135.479 8.57948C135.824 8.64264 136.218 8.58319 136.56 8.48287C136.746 8.42713 136.973 8.16703 136.984 7.98868C136.995 7.81404 136.791 7.5465 136.612 7.45361C136.289 7.29012 135.917 7.23067 135.564 7.12663C135.197 7.01516 134.817 6.92226 134.457 6.78478C133.814 6.53583 133.432 6.06022 133.413 5.36166C133.394 4.66311 133.707 4.12061 134.327 3.77133C135.327 3.20654 137.01 3.27343 138.143 3.94226C138.017 4.26552 137.887 4.59622 137.742 4.96779C137.552 4.89348 137.396 4.79687 137.225 4.77086C136.668 4.6854 136.103 4.55535 135.549 4.58508C135.301 4.59622 134.944 4.90463 134.862 5.1573C134.732 5.55488 135.137 5.71465 135.453 5.81126C136.033 5.98962 136.627 6.11967 137.203 6.30174C137.913 6.5284 138.381 6.97057 138.414 7.76573C138.444 8.51259 138.054 9.15913 137.307 9.45267C135.929 9.99145 134.609 9.78337 133.287 9.06252Z" fill="#010101"/>
<path d="M98.0466 9.6125C97.5895 9.6125 97.1734 9.6125 96.7312 9.6125C96.7312 7.58372 96.7312 5.58095 96.7312 3.54102C97.1659 3.54102 97.5784 3.54102 98.0466 3.54102C98.0466 5.54379 98.0466 7.55771 98.0466 9.6125Z" fill="#010101"/>
<path d="M140.822 9.6125C140.357 9.6125 139.941 9.6125 139.492 9.6125C139.492 7.58744 139.492 5.58466 139.492 3.54102C139.93 3.54102 140.357 3.54102 140.822 3.54102C140.822 5.56237 140.822 7.56514 140.822 9.6125Z" fill="#010101"/>
<path d="M39.0224 23.3681C40.264 23.3681 41.2704 22.3616 41.2704 21.1201C41.2704 19.8785 40.264 18.8721 39.0224 18.8721C37.7809 18.8721 36.7744 19.8785 36.7744 21.1201C36.7744 22.3616 37.7809 23.3681 39.0224 23.3681Z" fill="#010101"/>
<path d="M37.6736 15.0338C39.1245 15.0338 40.3007 13.8577 40.3007 12.4068C40.3007 10.9559 39.1245 9.77979 37.6736 9.77979C36.2228 9.77979 35.0466 10.9559 35.0466 12.4068C35.0466 13.8577 36.2228 15.0338 37.6736 15.0338Z" fill="#010101"/>
<path d="M30.1122 9.14804C32.0905 9.14804 33.6942 7.54434 33.6942 5.56609C33.6942 3.58783 32.0905 1.98413 30.1122 1.98413C28.134 1.98413 26.5303 3.58783 26.5303 5.56609C26.5303 7.54434 28.134 9.14804 30.1122 9.14804Z" fill="#010101"/>
<path d="M17.8985 8.9103C20.359 8.9103 22.3537 6.91566 22.3537 4.45515C22.3537 1.99464 20.359 0 17.8985 0C15.438 0 13.4434 1.99464 13.4434 4.45515C13.4434 6.91566 15.438 8.9103 17.8985 8.9103Z" fill="#010101"/>
<path d="M6.92608 19.8829C10.4044 19.8829 13.2242 17.0631 13.2242 13.5848C13.2242 10.1064 10.4044 7.28662 6.92608 7.28662C3.44771 7.28662 0.62793 10.1064 0.62793 13.5848C0.62793 17.0631 3.44771 19.8829 6.92608 19.8829Z" fill="#010101"/>
<path d="M7.29396 37.1275C11.3223 37.1275 14.5879 33.8619 14.5879 29.8335C14.5879 25.8052 11.3223 22.5396 7.29396 22.5396C3.26562 22.5396 0 25.8052 0 29.8335C0 33.8619 3.26562 37.1275 7.29396 37.1275Z" fill="#010101"/>
<path d="M21.7704 49.4153C26.6339 49.4153 30.5766 45.4726 30.5766 40.609C30.5766 35.7454 26.6339 31.8027 21.7704 31.8027C16.9068 31.8027 12.9641 35.7454 12.9641 40.609C12.9641 45.4726 16.9068 49.4153 21.7704 49.4153Z" fill="#010101"/>
<path d="M40.8581 45.8335C45.9761 45.8335 50.1251 41.6396 50.1251 36.4662C50.1251 31.2928 45.9761 27.0989 40.8581 27.0989C35.74 27.0989 31.5911 31.2928 31.5911 36.4662C31.5911 41.6396 35.74 45.8335 40.8581 45.8335Z" fill="#010101"/>
</svg>
