<svg width="20" height="21" viewBox="0 0 20 21" fill="none" xmlns="http://www.w3.org/2000/svg">
<path d="M10 0.515869C7.28625 0.515869 6.945 0.528369 5.87875 0.575869C4.8125 0.625869 4.08625 0.793369 3.45 1.04087C2.78231 1.29128 2.17768 1.68512 1.67875 2.19462C1.16925 2.69355 0.775407 3.29817 0.525 3.96587C0.2775 4.60087 0.10875 5.32837 0.06 6.39087C0.0125 7.45962 0 7.79962 0 10.5171C0 13.2321 0.0125 13.5721 0.06 14.6384C0.11 15.7034 0.2775 16.4296 0.525 17.0659C0.78125 17.7234 1.1225 18.2809 1.67875 18.8371C2.23375 19.3934 2.79125 19.7359 3.44875 19.9909C4.08625 20.2384 4.81125 20.4071 5.87625 20.4559C6.94375 20.5034 7.28375 20.5159 10 20.5159C12.7163 20.5159 13.055 20.5034 14.1225 20.4559C15.1863 20.4059 15.915 20.2384 16.5513 19.9909C17.2185 19.7403 17.8227 19.3465 18.3212 18.8371C18.8775 18.2809 19.2188 17.7234 19.475 17.0659C19.7213 16.4296 19.89 15.7034 19.94 14.6384C19.9875 13.5721 20 13.2321 20 10.5159C20 7.79962 19.9875 7.45962 19.94 6.39212C19.89 5.32837 19.7213 4.60087 19.475 3.96587C19.2246 3.29817 18.8308 2.69355 18.3212 2.19462C17.8223 1.68512 17.2177 1.29128 16.55 1.04087C15.9125 0.793369 15.185 0.624619 14.1213 0.575869C13.0538 0.528369 12.715 0.515869 9.9975 0.515869H10ZM9.10375 2.31837H10.0013C12.6713 2.31837 12.9875 2.32712 14.0413 2.37587C15.0162 2.41962 15.5462 2.58337 15.8988 2.71962C16.365 2.90087 16.6987 3.11837 17.0487 3.46837C17.3988 3.81837 17.615 4.15087 17.7963 4.61837C17.9338 4.96962 18.0963 5.49962 18.14 6.47462C18.1887 7.52837 18.1987 7.84462 18.1987 10.5134C18.1987 13.1821 18.1887 13.4996 18.14 14.5534C18.0963 15.5284 17.9325 16.0571 17.7963 16.4096C17.6348 16.8432 17.3791 17.2356 17.0475 17.5584C16.6975 17.9084 16.365 18.1246 15.8975 18.3059C15.5475 18.4434 15.0175 18.6059 14.0413 18.6509C12.9875 18.6984 12.6713 18.7096 10.0013 18.7096C7.33125 18.7096 7.01375 18.6984 5.96 18.6509C4.985 18.6059 4.45625 18.4434 4.10375 18.3059C3.66979 18.1449 3.277 17.8896 2.95375 17.5584C2.62159 17.2354 2.36541 16.8426 2.20375 16.4084C2.0675 16.0571 1.90375 15.5271 1.86 14.5521C1.8125 13.4984 1.8025 13.1821 1.8025 10.5109C1.8025 7.83962 1.8125 7.52587 1.86 6.47212C1.905 5.49712 2.0675 4.96712 2.205 4.61462C2.38625 4.14837 2.60375 3.81462 2.95375 3.46462C3.30375 3.11462 3.63625 2.89837 4.10375 2.71712C4.45625 2.57962 4.985 2.41712 5.96 2.37212C6.8825 2.32962 7.24 2.31712 9.10375 2.31587V2.31837ZM15.3387 3.97837C15.1812 3.97837 15.0251 4.00941 14.8795 4.06971C14.7339 4.13002 14.6017 4.21841 14.4902 4.32984C14.3788 4.44127 14.2904 4.57356 14.2301 4.71915C14.1698 4.86474 14.1388 5.02078 14.1388 5.17837C14.1388 5.33596 14.1698 5.492 14.2301 5.63759C14.2904 5.78318 14.3788 5.91547 14.4902 6.0269C14.6017 6.13833 14.7339 6.22672 14.8795 6.28702C15.0251 6.34733 15.1812 6.37837 15.3387 6.37837C15.657 6.37837 15.9622 6.25194 16.1873 6.0269C16.4123 5.80185 16.5387 5.49663 16.5387 5.17837C16.5387 4.86011 16.4123 4.55488 16.1873 4.32984C15.9622 4.1048 15.657 3.97837 15.3387 3.97837ZM10.0013 5.38087C9.32009 5.37024 8.64362 5.49523 8.01122 5.74855C7.37883 6.00186 6.80314 6.37846 6.31769 6.8564C5.83223 7.33434 5.4467 7.90408 5.18355 8.53244C4.9204 9.16081 4.78488 9.83525 4.78488 10.5165C4.78488 11.1977 4.9204 11.8722 5.18355 12.5005C5.4467 13.1289 5.83223 13.6986 6.31769 14.1766C6.80314 14.6545 7.37883 15.0311 8.01122 15.2844C8.64362 15.5378 9.32009 15.6627 10.0013 15.6521C11.3494 15.6311 12.6353 15.0808 13.5812 14.1199C14.5272 13.1591 15.0574 11.8648 15.0574 10.5165C15.0574 9.16815 14.5272 7.87388 13.5812 6.91306C12.6353 5.95223 11.3494 5.4019 10.0013 5.38087ZM10.0013 7.18212C10.439 7.18212 10.8726 7.26835 11.277 7.43589C11.6815 7.60342 12.049 7.84898 12.3586 8.15855C12.6681 8.46812 12.9137 8.83563 13.0812 9.2401C13.2488 9.64457 13.335 10.0781 13.335 10.5159C13.335 10.9537 13.2488 11.3872 13.0812 11.7916C12.9137 12.1961 12.6681 12.5636 12.3586 12.8732C12.049 13.1828 11.6815 13.4283 11.277 13.5959C10.8726 13.7634 10.439 13.8496 10.0013 13.8496C9.11709 13.8496 8.26913 13.4984 7.64393 12.8732C7.01873 12.248 6.6675 11.4 6.6675 10.5159C6.6675 9.6317 7.01873 8.78375 7.64393 8.15855C8.26913 7.53335 9.11709 7.18212 10.0013 7.18212Z" fill="#091E42"/>
</svg>
