<svg width="48" height="48" viewBox="0 0 48 48" fill="none" xmlns="http://www.w3.org/2000/svg">
<path d="M23.6166 26.6328C21.5287 26.6328 19.5264 27.4622 18.0501 28.9385C16.5738 30.4148 15.7444 32.4172 15.7444 34.505C15.7444 36.5928 16.5738 38.5951 18.0501 40.0714C19.5264 41.5478 21.5287 42.3772 23.6166 42.3772C25.7044 42.3772 27.7067 41.5478 29.183 40.0714C30.6593 38.5951 31.4887 36.5928 31.4887 34.505C31.4887 32.4172 30.6593 30.4148 29.183 28.9385C27.7067 27.4622 25.7044 26.6328 23.6166 26.6328ZM20.2428 34.505C20.2428 33.6102 20.5982 32.7521 21.2309 32.1194C21.8636 31.4866 22.7218 31.1312 23.6166 31.1312C24.5113 31.1312 25.3695 31.4866 26.0022 32.1194C26.6349 32.7521 26.9903 33.6102 26.9903 34.505C26.9903 35.3998 26.6349 36.2579 26.0022 36.8906C25.3695 37.5233 24.5113 37.8788 23.6166 37.8788C22.7218 37.8788 21.8636 37.5233 21.2309 36.8906C20.5982 36.2579 20.2428 35.3998 20.2428 34.505Z" fill="#091E42"/>
<path d="M36.0455 10.0246L28.8954 0L2.60456 21.003L1.14709 20.9872V21.0097H0V48H47.233V21.0097H45.0693L40.7644 8.41648L36.0455 10.0246ZM40.3168 21.0097H17.7619L34.5611 15.2833L37.9844 14.1879L40.3168 21.0097ZM31.6011 11.5406L14.2599 17.4515L27.9934 6.47992L31.6011 11.5406ZM4.49838 39.3833V29.6219C5.44731 29.2856 6.30922 28.7418 7.02129 28.0301C7.73336 27.3184 8.27762 26.4568 8.6144 25.5081H38.6186C38.9553 26.4572 39.4994 27.3192 40.2115 28.0312C40.9236 28.7433 41.7856 29.2875 42.7346 29.6241V39.3856C41.7856 39.7222 40.9236 40.2664 40.2115 40.9785C39.4994 41.6905 38.9553 42.5525 38.6186 43.5016H8.6189C8.28194 42.5517 7.73714 41.6891 7.02427 40.9766C6.3114 40.2641 5.44844 39.7198 4.49838 39.3833Z" fill="#091E42"/>
</svg>
