<svg width="37" height="48" viewBox="0 0 37 48" fill="none" xmlns="http://www.w3.org/2000/svg">
<path d="M25.338 45.1471L14.6001 47.9523C13.835 48.1521 13.0415 47.7054 12.8365 46.9595C12.6316 46.2138 13.0897 45.44 13.8546 45.2402L24.5925 42.435C25.3576 42.2352 26.1511 42.6818 26.3561 43.4277C26.5612 44.1736 26.1029 44.9472 25.338 45.1471ZM20.3662 12.974C20.27 14.2503 19.5296 14.9696 18.3801 14.9514C17.2356 14.9334 16.4026 14.1686 16.4301 13.004C16.4567 11.8709 17.1854 11.1266 18.425 11.1398C19.6638 11.1528 20.2778 11.8665 20.3662 12.974ZM34.1323 8.67292C29.8607 1.79427 21.4001 -1.54784 13.54 0.691155C6.66133 2.65071 2.17634 7.07893 0.545534 13.8893C-1.06863 20.6299 0.940528 26.4277 6.02542 31.2831C7.21792 32.4219 8.31436 33.8012 8.98662 35.2731C9.6606 36.7485 9.87667 37.2098 11.5183 36.8225C13.7982 36.2846 16.0476 35.6239 18.3271 35.084C19.4957 34.8072 19.9397 34.1711 19.9319 33.0226C19.9007 28.387 19.9112 23.7511 19.9285 19.1155C19.9323 18.0661 19.594 17.2021 18.436 17.1759C17.2638 17.1494 16.905 17.9845 16.9148 19.0542C16.9419 22.0597 16.923 25.0654 16.9227 28.0709C16.9226 32.9059 16.9227 32.9059 12.0466 33.6006C10.1929 31.5297 8.5049 29.6681 6.8439 27.7838C0.882521 21.0209 1.97269 11.0236 9.41295 5.8457C14.7583 2.1256 20.5004 1.9186 26.2253 5.0596C31.5409 7.97626 34.4328 13.9851 33.6663 19.7979C33.1543 23.681 31.2525 26.7807 28.4317 29.4452C26.7293 31.0533 25.1781 32.7847 24.6197 35.1099C24.3584 36.1975 23.733 36.7369 22.6524 36.9966C22.8544 36.8136 11.0052 40.0506 11.0052 40.0506C10.2556 40.2463 9.8067 41.0046 10.0076 41.7353L10.0385 41.8483C10.2394 42.5791 11.017 43.0169 11.7666 42.8211C11.7666 42.8211 25.3623 39.2591 25.5406 39.2099C26.7996 38.871 27.4849 37.9971 27.5136 36.7498C27.5565 34.8877 28.3863 33.4383 29.7368 32.2011C30.4598 31.5387 31.1796 30.8703 31.8599 30.1671C37.4755 24.3601 38.4023 15.5493 34.1323 8.67292Z" fill="#091E42"/>
</svg>
