<svg width="20" height="21" viewBox="0 0 20 21" fill="none" xmlns="http://www.w3.org/2000/svg">
<path d="M18.3925 0.415283H1.6075C0.72 0.415283 0 1.13528 0 2.02278V18.8078C0 19.6953 0.72 20.4153 1.6075 20.4153H18.3925C19.28 20.4153 20 19.6953 20 18.8078V2.02278C20 1.13528 19.28 0.415283 18.3925 0.415283ZM18.3925 18.8153C7.1975 18.8128 1.6 18.8103 1.6 18.8078C1.6025 7.61278 1.605 2.01528 1.6075 2.01528C12.8025 2.01778 18.4 2.02028 18.4 2.02278C18.3975 13.2178 18.395 18.8153 18.3925 18.8153ZM2.965 7.91278H5.9325V17.4578H2.965V7.91278ZM4.45 6.60778C5.3975 6.60778 6.17 5.83778 6.17 4.88778C6.17 4.66191 6.12551 4.43825 6.03907 4.22957C5.95264 4.02089 5.82594 3.83128 5.66622 3.67156C5.50651 3.51184 5.3169 3.38515 5.10822 3.29871C4.89954 3.21227 4.67587 3.16778 4.45 3.16778C4.22413 3.16778 4.00046 3.21227 3.79178 3.29871C3.5831 3.38515 3.39349 3.51184 3.23378 3.67156C3.07406 3.83128 2.94737 4.02089 2.86093 4.22957C2.77449 4.43825 2.73 4.66191 2.73 4.88778C2.7275 5.83778 3.4975 6.60778 4.45 6.60778ZM10.7575 12.7353C10.7575 11.4903 10.995 10.2853 12.5375 10.2853C14.0575 10.2853 14.08 11.7078 14.08 12.8153V17.4578H17.045V12.2228C17.045 9.65278 16.49 7.67528 13.4875 7.67528C12.045 7.67528 11.0775 8.46778 10.68 9.21778H10.64V7.91278H7.7925V17.4578H10.7575V12.7353Z" fill="#091E42"/>
</svg>
