<svg width="20" height="21" viewBox="0 0 20 21" fill="none" xmlns="http://www.w3.org/2000/svg">
<path d="M17.0854 3.33997C16.164 2.40924 15.0665 1.67129 13.8569 1.16916C12.6473 0.667036 11.3499 0.410781 10.0402 0.415343C4.55276 0.415343 0.0804022 4.8877 0.0804022 10.3751C0.0804022 12.1339 0.542714 13.8425 1.40704 15.35L0 20.5158L5.27638 19.1289C6.73367 19.9229 8.37186 20.345 10.0402 20.345C15.5276 20.345 20 15.8726 20 10.3852C20 7.72187 18.9648 5.21936 17.0854 3.33997ZM10.0402 18.6565C8.55276 18.6565 7.09548 18.2545 5.81909 17.5008L5.51759 17.3199L2.38191 18.144L3.21608 15.0887L3.01508 14.7772C2.18869 13.4575 1.74989 11.9322 1.74874 10.3751C1.74874 5.81233 5.46734 2.09373 10.0301 2.09373C12.2412 2.09373 14.3216 2.95806 15.8794 4.5259C16.6507 5.2937 17.262 6.20696 17.6778 7.21275C18.0936 8.21855 18.3056 9.29686 18.3015 10.3852C18.3216 14.948 14.603 18.6565 10.0402 18.6565ZM14.5829 12.4656C14.3317 12.345 13.1055 11.742 12.8844 11.6515C12.6533 11.5711 12.4925 11.5309 12.3216 11.7721C12.1508 12.0234 11.6784 12.5862 11.5377 12.747C11.397 12.9179 11.2462 12.938 10.995 12.8073C10.7437 12.6867 9.9397 12.4153 8.99497 11.5711C8.25126 10.9078 7.75879 10.0937 7.60804 9.84248C7.46734 9.59122 7.58794 9.46057 7.71859 9.32991C7.82914 9.21936 7.96985 9.03846 8.09045 8.89775C8.21105 8.75705 8.26131 8.6465 8.34171 8.48569C8.42211 8.31484 8.38191 8.17414 8.32161 8.05353C8.26131 7.93293 7.75879 6.7068 7.55779 6.20429C7.35678 5.72188 7.14573 5.78218 6.99497 5.77213H6.51256C6.34171 5.77213 6.0804 5.83243 5.84925 6.08368C5.62814 6.33494 4.98492 6.93796 4.98492 8.16409C4.98492 9.39022 5.8794 10.5761 6 10.7369C6.1206 10.9078 7.75879 13.4204 10.2513 14.4957C10.8442 14.757 11.3065 14.9078 11.6683 15.0184C12.2613 15.2093 12.804 15.1792 13.2362 15.1189C13.7186 15.0485 14.7136 14.5158 14.9146 13.9329C15.1256 13.35 15.1256 12.8576 15.0553 12.747C14.9849 12.6364 14.8342 12.5862 14.5829 12.4656Z" fill="#091E42"/>
</svg>
